<svg xmlns="http://www.w3.org/2000/svg" viewBox="0 0 800 600" fill="none">
  <defs>
    <linearGradient id="bg" x1="0" y1="0" x2="800" y2="600" gradientUnits="userSpaceOnUse">
      <stop offset="0%" stop-color="#0a0a0a"/>
      <stop offset="100%" stop-color="#1a1a1a"/>
    </linearGradient>
    <linearGradient id="glow1" x1="0" y1="0" x2="1" y2="1">
      <stop offset="0%" stop-color="#3498db" stop-opacity="0.6"/>
      <stop offset="100%" stop-color="#9b59b6" stop-opacity="0.6"/>
    </linearGradient>
    <linearGradient id="glow2" x1="0" y1="0" x2="1" y2="1">
      <stop offset="0%" stop-color="#e74c3c" stop-opacity="0.5"/>
      <stop offset="100%" stop-color="#f39c12" stop-opacity="0.5"/>
    </linearGradient>
    <linearGradient id="glow3" x1="0" y1="0" x2="1" y2="1">
      <stop offset="0%" stop-color="#2ecc71" stop-opacity="0.5"/>
      <stop offset="100%" stop-color="#1abc9c" stop-opacity="0.5"/>
    </linearGradient>
    <linearGradient id="titleGrad" x1="200" y1="200" x2="600" y2="200" gradientUnits="userSpaceOnUse">
      <stop offset="0%" stop-color="#ffffff"/>
      <stop offset="100%" stop-color="#888888"/>
    </linearGradient>
    <filter id="blur1" x="-50%" y="-50%" width="200%" height="200%">
      <feGaussianBlur in="SourceGraphic" stdDeviation="40"/>
    </filter>
    <filter id="blur2" x="-50%" y="-50%" width="200%" height="200%">
      <feGaussianBlur in="SourceGraphic" stdDeviation="30"/>
    </filter>
    <filter id="softglow" x="-20%" y="-20%" width="140%" height="140%">
      <feGaussianBlur in="SourceGraphic" stdDeviation="2"/>
    </filter>
  </defs>

  <!-- Background -->
  <rect width="800" height="600" fill="url(#bg)"/>

  <!-- Ambient glow blobs -->
  <circle cx="150" cy="120" r="160" fill="url(#glow1)" filter="url(#blur1)" opacity="0.5"/>
  <circle cx="650" cy="480" r="180" fill="url(#glow2)" filter="url(#blur1)" opacity="0.4"/>
  <circle cx="400" cy="300" r="140" fill="url(#glow3)" filter="url(#blur1)" opacity="0.3"/>

  <!-- Grid dots pattern -->
  <g opacity="0.08" fill="#ffffff">
    <circle cx="40" cy="40" r="1.5"/><circle cx="80" cy="40" r="1.5"/><circle cx="120" cy="40" r="1.5"/><circle cx="160" cy="40" r="1.5"/><circle cx="200" cy="40" r="1.5"/><circle cx="240" cy="40" r="1.5"/><circle cx="280" cy="40" r="1.5"/><circle cx="320" cy="40" r="1.5"/><circle cx="360" cy="40" r="1.5"/><circle cx="400" cy="40" r="1.5"/><circle cx="440" cy="40" r="1.5"/><circle cx="480" cy="40" r="1.5"/><circle cx="520" cy="40" r="1.5"/><circle cx="560" cy="40" r="1.5"/><circle cx="600" cy="40" r="1.5"/><circle cx="640" cy="40" r="1.5"/><circle cx="680" cy="40" r="1.5"/><circle cx="720" cy="40" r="1.5"/><circle cx="760" cy="40" r="1.5"/>
    <circle cx="40" cy="80" r="1.5"/><circle cx="80" cy="80" r="1.5"/><circle cx="120" cy="80" r="1.5"/><circle cx="160" cy="80" r="1.5"/><circle cx="200" cy="80" r="1.5"/><circle cx="240" cy="80" r="1.5"/><circle cx="280" cy="80" r="1.5"/><circle cx="320" cy="80" r="1.5"/><circle cx="360" cy="80" r="1.5"/><circle cx="400" cy="80" r="1.5"/><circle cx="440" cy="80" r="1.5"/><circle cx="480" cy="80" r="1.5"/><circle cx="520" cy="80" r="1.5"/><circle cx="560" cy="80" r="1.5"/><circle cx="600" cy="80" r="1.5"/><circle cx="640" cy="80" r="1.5"/><circle cx="680" cy="80" r="1.5"/><circle cx="720" cy="80" r="1.5"/><circle cx="760" cy="80" r="1.5"/>
    <circle cx="40" cy="120" r="1.5"/><circle cx="80" cy="120" r="1.5"/><circle cx="120" cy="120" r="1.5"/><circle cx="160" cy="120" r="1.5"/><circle cx="200" cy="120" r="1.5"/><circle cx="240" cy="120" r="1.5"/><circle cx="280" cy="120" r="1.5"/><circle cx="320" cy="120" r="1.5"/><circle cx="360" cy="120" r="1.5"/><circle cx="400" cy="120" r="1.5"/><circle cx="440" cy="120" r="1.5"/><circle cx="480" cy="120" r="1.5"/><circle cx="520" cy="120" r="1.5"/><circle cx="560" cy="120" r="1.5"/><circle cx="600" cy="120" r="1.5"/><circle cx="640" cy="120" r="1.5"/><circle cx="680" cy="120" r="1.5"/><circle cx="720" cy="120" r="1.5"/><circle cx="760" cy="120" r="1.5"/>
    <circle cx="40" cy="160" r="1.5"/><circle cx="80" cy="160" r="1.5"/><circle cx="120" cy="160" r="1.5"/><circle cx="160" cy="160" r="1.5"/><circle cx="200" cy="160" r="1.5"/><circle cx="240" cy="160" r="1.5"/><circle cx="280" cy="160" r="1.5"/><circle cx="320" cy="160" r="1.5"/><circle cx="360" cy="160" r="1.5"/><circle cx="400" cy="160" r="1.5"/><circle cx="440" cy="160" r="1.5"/><circle cx="480" cy="160" r="1.5"/><circle cx="520" cy="160" r="1.5"/><circle cx="560" cy="160" r="1.5"/><circle cx="600" cy="160" r="1.5"/><circle cx="640" cy="160" r="1.5"/><circle cx="680" cy="160" r="1.5"/><circle cx="720" cy="160" r="1.5"/><circle cx="760" cy="160" r="1.5"/>
    <circle cx="40" cy="200" r="1.5"/><circle cx="80" cy="200" r="1.5"/><circle cx="120" cy="200" r="1.5"/><circle cx="160" cy="200" r="1.5"/><circle cx="200" cy="200" r="1.5"/><circle cx="240" cy="200" r="1.5"/><circle cx="280" cy="200" r="1.5"/><circle cx="320" cy="200" r="1.5"/><circle cx="360" cy="200" r="1.5"/><circle cx="400" cy="200" r="1.5"/><circle cx="440" cy="200" r="1.5"/><circle cx="480" cy="200" r="1.5"/><circle cx="520" cy="200" r="1.5"/><circle cx="560" cy="200" r="1.5"/><circle cx="600" cy="200" r="1.5"/><circle cx="640" cy="200" r="1.5"/><circle cx="680" cy="200" r="1.5"/><circle cx="720" cy="200" r="1.5"/><circle cx="760" cy="200" r="1.5"/>
    <circle cx="40" cy="520" r="1.5"/><circle cx="80" cy="520" r="1.5"/><circle cx="120" cy="520" r="1.5"/><circle cx="160" cy="520" r="1.5"/><circle cx="200" cy="520" r="1.5"/><circle cx="240" cy="520" r="1.5"/><circle cx="280" cy="520" r="1.5"/><circle cx="320" cy="520" r="1.5"/><circle cx="360" cy="520" r="1.5"/><circle cx="400" cy="520" r="1.5"/><circle cx="440" cy="520" r="1.5"/><circle cx="480" cy="520" r="1.5"/><circle cx="520" cy="520" r="1.5"/><circle cx="560" cy="520" r="1.5"/><circle cx="600" cy="520" r="1.5"/><circle cx="640" cy="520" r="1.5"/><circle cx="680" cy="520" r="1.5"/><circle cx="720" cy="520" r="1.5"/><circle cx="760" cy="520" r="1.5"/>
    <circle cx="40" cy="560" r="1.5"/><circle cx="80" cy="560" r="1.5"/><circle cx="120" cy="560" r="1.5"/><circle cx="160" cy="560" r="1.5"/><circle cx="200" cy="560" r="1.5"/><circle cx="240" cy="560" r="1.5"/><circle cx="280" cy="560" r="1.5"/><circle cx="320" cy="560" r="1.5"/><circle cx="360" cy="560" r="1.5"/><circle cx="400" cy="560" r="1.5"/><circle cx="440" cy="560" r="1.5"/><circle cx="480" cy="560" r="1.5"/><circle cx="520" cy="560" r="1.5"/><circle cx="560" cy="560" r="1.5"/><circle cx="600" cy="560" r="1.5"/><circle cx="640" cy="560" r="1.5"/><circle cx="680" cy="560" r="1.5"/><circle cx="720" cy="560" r="1.5"/><circle cx="760" cy="560" r="1.5"/>
  </g>

  <!-- Floating icon cards -->

  <!-- Dice icon -->
  <g transform="translate(100, 160)">
    <rect x="0" y="0" width="64" height="64" rx="12" fill="#1a1a1a" stroke="#333" stroke-width="1"/>
    <circle cx="20" cy="20" r="5" fill="#e74c3c"/>
    <circle cx="44" cy="20" r="5" fill="#e74c3c"/>
    <circle cx="32" cy="32" r="5" fill="#e74c3c"/>
    <circle cx="20" cy="44" r="5" fill="#e74c3c"/>
    <circle cx="44" cy="44" r="5" fill="#e74c3c"/>
  </g>

  <!-- Color palette icon -->
  <g transform="translate(620, 100)">
    <rect x="0" y="0" width="80" height="56" rx="10" fill="#1a1a1a" stroke="#333" stroke-width="1"/>
    <rect x="8" y="8" width="12" height="40" rx="3" fill="#e74c3c"/>
    <rect x="24" y="8" width="12" height="40" rx="3" fill="#f39c12"/>
    <rect x="40" y="8" width="12" height="40" rx="3" fill="#2ecc71"/>
    <rect x="56" y="8" width="12" height="40" rx="3" fill="#3498db"/>
  </g>

  <!-- Clock icon -->
  <g transform="translate(580, 380)">
    <circle cx="36" cy="36" r="34" fill="#1a1a1a" stroke="#333" stroke-width="1"/>
    <circle cx="36" cy="36" r="28" fill="none" stroke="#555" stroke-width="1"/>
    <line x1="36" y1="36" x2="36" y2="16" stroke="#fff" stroke-width="2.5" stroke-linecap="round"/>
    <line x1="36" y1="36" x2="52" y2="30" stroke="#888" stroke-width="2" stroke-linecap="round"/>
    <line x1="36" y1="36" x2="28" y2="50" stroke="#e74c3c" stroke-width="1" stroke-linecap="round"/>
    <circle cx="36" cy="36" r="3" fill="#fff"/>
  </g>

  <!-- Matrix rain lines -->
  <g opacity="0.15" fill="#2ecc71" font-family="monospace" font-size="14">
    <text x="80" y="320">0</text><text x="80" y="340">1</text><text x="80" y="360">0</text><text x="80" y="380">1</text><text x="80" y="400">1</text>
    <text x="96" y="340">1</text><text x="96" y="360">0</text><text x="96" y="380">1</text><text x="96" y="400">0</text><text x="96" y="420">0</text><text x="96" y="440">1</text>
    <text x="112" y="300">0</text><text x="112" y="320">1</text><text x="112" y="340">1</text><text x="112" y="360">0</text>
    <text x="690" y="220">1</text><text x="690" y="240">0</text><text x="690" y="260">1</text><text x="690" y="280">1</text>
    <text x="706" y="200">0</text><text x="706" y="220">1</text><text x="706" y="240">0</text><text x="706" y="260">1</text><text x="706" y="280">0</text><text x="706" y="300">1</text>
    <text x="722" y="240">1</text><text x="722" y="260">0</text><text x="722" y="280">0</text>
  </g>

  <!-- Sound bars -->
  <g transform="translate(170, 380)" opacity="0.5">
    <rect x="0" y="30" width="4" height="20" rx="2" fill="#9b59b6"/>
    <rect x="8" y="15" width="4" height="35" rx="2" fill="#9b59b6"/>
    <rect x="16" y="25" width="4" height="25" rx="2" fill="#9b59b6"/>
    <rect x="24" y="5" width="4" height="45" rx="2" fill="#9b59b6"/>
    <rect x="32" y="20" width="4" height="30" rx="2" fill="#9b59b6"/>
    <rect x="40" y="10" width="4" height="40" rx="2" fill="#9b59b6"/>
    <rect x="48" y="28" width="4" height="22" rx="2" fill="#9b59b6"/>
    <rect x="56" y="18" width="4" height="32" rx="2" fill="#9b59b6"/>
    <rect x="64" y="35" width="4" height="15" rx="2" fill="#9b59b6"/>
  </g>

  <!-- Pixel art mini grid -->
  <g transform="translate(300, 380)">
    <rect x="0" y="0" width="14" height="14" fill="#e74c3c"/>
    <rect x="14" y="0" width="14" height="14" fill="#1a1a1a" stroke="#333" stroke-width="0.5"/>
    <rect x="28" y="0" width="14" height="14" fill="#f39c12"/>
    <rect x="42" y="0" width="14" height="14" fill="#1a1a1a" stroke="#333" stroke-width="0.5"/>
    <rect x="0" y="14" width="14" height="14" fill="#1a1a1a" stroke="#333" stroke-width="0.5"/>
    <rect x="14" y="14" width="14" height="14" fill="#2ecc71"/>
    <rect x="28" y="14" width="14" height="14" fill="#1a1a1a" stroke="#333" stroke-width="0.5"/>
    <rect x="42" y="14" width="14" height="14" fill="#3498db"/>
    <rect x="0" y="28" width="14" height="14" fill="#9b59b6"/>
    <rect x="14" y="28" width="14" height="14" fill="#1a1a1a" stroke="#333" stroke-width="0.5"/>
    <rect x="28" y="28" width="14" height="14" fill="#e74c3c"/>
    <rect x="42" y="28" width="14" height="14" fill="#1a1a1a" stroke="#333" stroke-width="0.5"/>
    <rect x="0" y="42" width="14" height="14" fill="#1a1a1a" stroke="#333" stroke-width="0.5"/>
    <rect x="14" y="42" width="14" height="14" fill="#f39c12"/>
    <rect x="28" y="42" width="14" height="14" fill="#1a1a1a" stroke="#333" stroke-width="0.5"/>
    <rect x="42" y="42" width="14" height="14" fill="#2ecc71"/>
  </g>

  <!-- Game of Life cells -->
  <g transform="translate(440, 400)" opacity="0.4">
    <rect x="0" y="0" width="8" height="8" fill="#fff"/><rect x="8" y="0" width="8" height="8" fill="transparent"/><rect x="16" y="0" width="8" height="8" fill="#fff"/>
    <rect x="0" y="8" width="8" height="8" fill="transparent"/><rect x="8" y="8" width="8" height="8" fill="#fff"/><rect x="16" y="8" width="8" height="8" fill="#fff"/>
    <rect x="0" y="16" width="8" height="8" fill="#fff"/><rect x="8" y="16" width="8" height="8" fill="#fff"/><rect x="16" y="16" width="8" height="8" fill="transparent"/>
    <rect x="24" y="8" width="8" height="8" fill="#fff"/><rect x="24" y="16" width="8" height="8" fill="#fff"/><rect x="24" y="24" width="8" height="8" fill="#fff"/>
  </g>

  <!-- Bouncing balls -->
  <circle cx="500" cy="120" r="16" fill="#e74c3c" opacity="0.7"/>
  <circle cx="540" cy="150" r="10" fill="#f39c12" opacity="0.6"/>
  <circle cx="470" cy="100" r="8" fill="#2ecc71" opacity="0.7"/>
  <circle cx="560" cy="110" r="12" fill="#3498db" opacity="0.6"/>
  <circle cx="490" cy="160" r="6" fill="#9b59b6" opacity="0.7"/>

  <!-- Particle connection lines -->
  <g stroke="#fff" stroke-width="0.5" opacity="0.06">
    <line x1="500" y1="120" x2="540" y2="150"/>
    <line x1="540" y1="150" x2="560" y2="110"/>
    <line x1="470" y1="100" x2="500" y2="120"/>
    <line x1="490" y1="160" x2="540" y2="150"/>
    <line x1="470" y1="100" x2="490" y2="160"/>
    <line x1="500" y1="120" x2="560" y2="110"/>
  </g>

  <!-- 3D Cube wireframe -->
  <g transform="translate(260, 100)" stroke="#555" stroke-width="1" fill="none" opacity="0.5">
    <polygon points="0,20 40,0 80,20 40,40"/>
    <polygon points="0,20 0,60 40,80 40,40"/>
    <polygon points="40,40 80,20 80,60 40,80"/>
    <line x1="0" y1="20" x2="40" y2="40" stroke="#888" stroke-width="0.5"/>
    <line x1="40" y1="0" x2="40" y2="40" stroke="#888" stroke-width="0.5"/>
    <line x1="80" y1="20" x2="40" y2="40" stroke="#888" stroke-width="0.5"/>
  </g>

  <!-- Morse code dots -->
  <g transform="translate(200, 480)" opacity="0.3">
    <circle cx="0" cy="0" r="4" fill="#2ecc71"/>
    <circle cx="14" cy="0" r="4" fill="#2ecc71"/>
    <rect x="24" y="-3" width="16" height="6" rx="3" fill="#3498db"/>
    <circle cx="50" cy="0" r="4" fill="#2ecc71"/>
    <rect x="60" y="-3" width="16" height="6" rx="3" fill="#3498db"/>
    <rect x="82" y="-3" width="16" height="6" rx="3" fill="#3498db"/>
    <circle cx="108" cy="0" r="4" fill="#2ecc71"/>
  </g>

  <!-- Center title -->
  <text x="400" y="275" text-anchor="middle" font-family="'Sora', 'Inter', -apple-system, sans-serif" font-size="56" font-weight="700" fill="url(#titleGrad)" letter-spacing="-2">
    PLAYGROUND
  </text>

  <!-- Subtitle -->
  <text x="400" y="320" text-anchor="middle" font-family="'Inter', -apple-system, sans-serif" font-size="16" fill="#666" letter-spacing="4" font-weight="500">
    EXPERIMENTS &amp; MINI-GAMES
  </text>

  <!-- Decorative lines -->
  <line x1="280" y1="340" x2="520" y2="340" stroke="#333" stroke-width="1"/>
  <circle cx="280" cy="340" r="2" fill="#555"/>
  <circle cx="520" cy="340" r="2" fill="#555"/>

  <!-- Corner accents -->
  <path d="M20 20 L20 50" stroke="#333" stroke-width="1.5"/>
  <path d="M20 20 L50 20" stroke="#333" stroke-width="1.5"/>
  <path d="M780 20 L780 50" stroke="#333" stroke-width="1.5"/>
  <path d="M780 20 L750 20" stroke="#333" stroke-width="1.5"/>
  <path d="M20 580 L20 550" stroke="#333" stroke-width="1.5"/>
  <path d="M20 580 L50 580" stroke="#333" stroke-width="1.5"/>
  <path d="M780 580 L780 550" stroke="#333" stroke-width="1.5"/>
  <path d="M780 580 L750 580" stroke="#333" stroke-width="1.5"/>
</svg>
